<mxfile host="app.diagrams.net" modified="2023-10-17T19:44:13.201Z" agent="Mozilla/5.0 (Macintosh; Intel Mac OS X 10_15_7) AppleWebKit/537.36 (KHTML, like Gecko) Chrome/117.0.0.0 Safari/537.36" etag="12plnMznNhRA6tU22-sQ" version="22.0.4" type="device">
  <diagram name="Page-1" id="tcXWdCdsDZFaa7mZGD-B">
    <mxGraphModel dx="2162" dy="736" grid="1" gridSize="10" guides="1" tooltips="1" connect="1" arrows="1" fold="1" page="1" pageScale="1" pageWidth="850" pageHeight="1100" math="0" shadow="0">
      <root>
        <mxCell id="0" />
        <mxCell id="1" parent="0" />
        <mxCell id="cEd2PKPTspsDf90CDAwa-6" value="" style="endArrow=none;html=1;rounded=0;exitX=0.5;exitY=1;exitDx=0;exitDy=0;entryX=0.5;entryY=0;entryDx=0;entryDy=0;startArrow=ERoneToMany;startFill=0;" parent="1" target="0CB_ZCXkAXY30ezm92RP-5" edge="1" source="0CB_ZCXkAXY30ezm92RP-3">
          <mxGeometry width="50" height="50" relative="1" as="geometry">
            <mxPoint x="-954" y="305" as="sourcePoint" />
            <mxPoint x="-953.5" y="225" as="targetPoint" />
          </mxGeometry>
        </mxCell>
        <mxCell id="cEd2PKPTspsDf90CDAwa-43" value="&lt;span style=&quot;font-size: 40px;&quot;&gt;&lt;b&gt;&lt;i&gt;Shelter Animal ER Diagram&lt;/i&gt;&lt;/b&gt;&lt;/span&gt;" style="text;html=1;align=center;verticalAlign=middle;resizable=0;points=[];autosize=1;strokeColor=none;fillColor=none;" parent="1" vertex="1">
          <mxGeometry x="-850" width="540" height="60" as="geometry" />
        </mxCell>
        <mxCell id="0CB_ZCXkAXY30ezm92RP-1" value="Animal" style="rounded=0;whiteSpace=wrap;html=1;" vertex="1" parent="1">
          <mxGeometry x="-620" y="362.5" width="120" height="60" as="geometry" />
        </mxCell>
        <mxCell id="0CB_ZCXkAXY30ezm92RP-2" value="GIVE" style="rhombus;whiteSpace=wrap;html=1;" vertex="1" parent="1">
          <mxGeometry x="-425" y="355" width="80" height="80" as="geometry" />
        </mxCell>
        <mxCell id="0CB_ZCXkAXY30ezm92RP-3" value="Ourtcome Event" style="rounded=0;whiteSpace=wrap;html=1;" vertex="1" parent="1">
          <mxGeometry x="-255" y="365" width="120" height="60" as="geometry" />
        </mxCell>
        <mxCell id="0CB_ZCXkAXY30ezm92RP-4" value="Outcome Type" style="rounded=0;whiteSpace=wrap;html=1;" vertex="1" parent="1">
          <mxGeometry x="-255" y="615" width="120" height="60" as="geometry" />
        </mxCell>
        <mxCell id="0CB_ZCXkAXY30ezm92RP-5" value="HAVE" style="rhombus;whiteSpace=wrap;html=1;" vertex="1" parent="1">
          <mxGeometry x="-235" y="468.75" width="80" height="80" as="geometry" />
        </mxCell>
        <mxCell id="0CB_ZCXkAXY30ezm92RP-6" value="" style="endArrow=none;html=1;rounded=0;exitX=1;exitY=0.5;exitDx=0;exitDy=0;startArrow=ERmandOne;startFill=0;entryX=0.046;entryY=0.454;entryDx=0;entryDy=0;entryPerimeter=0;" edge="1" parent="1" source="0CB_ZCXkAXY30ezm92RP-1" target="0CB_ZCXkAXY30ezm92RP-2">
          <mxGeometry width="50" height="50" relative="1" as="geometry">
            <mxPoint x="-370" y="412.5" as="sourcePoint" />
            <mxPoint x="-430" y="393" as="targetPoint" />
          </mxGeometry>
        </mxCell>
        <mxCell id="0CB_ZCXkAXY30ezm92RP-7" value="" style="endArrow=none;html=1;rounded=0;exitX=0;exitY=0.5;exitDx=0;exitDy=0;startArrow=ERmandOne;startFill=0;entryX=1;entryY=0.5;entryDx=0;entryDy=0;" edge="1" parent="1" source="0CB_ZCXkAXY30ezm92RP-3" target="0CB_ZCXkAXY30ezm92RP-2">
          <mxGeometry width="50" height="50" relative="1" as="geometry">
            <mxPoint x="-415" y="475" as="sourcePoint" />
            <mxPoint x="-305" y="475" as="targetPoint" />
          </mxGeometry>
        </mxCell>
        <mxCell id="0CB_ZCXkAXY30ezm92RP-9" value="" style="endArrow=none;html=1;rounded=0;exitX=0.5;exitY=0;exitDx=0;exitDy=0;startArrow=ERmandOne;startFill=0;entryX=0;entryY=0.5;entryDx=0;entryDy=0;" edge="1" parent="1" source="0CB_ZCXkAXY30ezm92RP-4">
          <mxGeometry width="50" height="50" relative="1" as="geometry">
            <mxPoint x="-305" y="549.38" as="sourcePoint" />
            <mxPoint x="-195" y="549.38" as="targetPoint" />
          </mxGeometry>
        </mxCell>
        <mxCell id="0CB_ZCXkAXY30ezm92RP-15" value="" style="endArrow=none;html=1;rounded=0;" edge="1" parent="1" source="0CB_ZCXkAXY30ezm92RP-17">
          <mxGeometry width="50" height="50" relative="1" as="geometry">
            <mxPoint x="-195" y="805" as="sourcePoint" />
            <mxPoint x="-195" y="675" as="targetPoint" />
          </mxGeometry>
        </mxCell>
        <mxCell id="0CB_ZCXkAXY30ezm92RP-16" value="" style="endArrow=none;html=1;rounded=0;" edge="1" parent="1" target="0CB_ZCXkAXY30ezm92RP-17">
          <mxGeometry width="50" height="50" relative="1" as="geometry">
            <mxPoint x="-195" y="805" as="sourcePoint" />
            <mxPoint x="-195" y="675" as="targetPoint" />
          </mxGeometry>
        </mxCell>
        <mxCell id="0CB_ZCXkAXY30ezm92RP-17" value="Outcome Type" style="ellipse;whiteSpace=wrap;html=1;" vertex="1" parent="1">
          <mxGeometry x="-250" y="735" width="110" height="65" as="geometry" />
        </mxCell>
        <mxCell id="0CB_ZCXkAXY30ezm92RP-18" value="" style="endArrow=none;html=1;rounded=0;entryX=1;entryY=0.5;entryDx=0;entryDy=0;" edge="1" parent="1" source="0CB_ZCXkAXY30ezm92RP-20" target="0CB_ZCXkAXY30ezm92RP-4">
          <mxGeometry width="50" height="50" relative="1" as="geometry">
            <mxPoint x="-20" y="693.75" as="sourcePoint" />
            <mxPoint x="-20" y="563.75" as="targetPoint" />
          </mxGeometry>
        </mxCell>
        <mxCell id="0CB_ZCXkAXY30ezm92RP-19" value="" style="endArrow=none;html=1;rounded=0;" edge="1" parent="1" target="0CB_ZCXkAXY30ezm92RP-20">
          <mxGeometry width="50" height="50" relative="1" as="geometry">
            <mxPoint x="-20" y="693.75" as="sourcePoint" />
            <mxPoint x="-20" y="563.75" as="targetPoint" />
          </mxGeometry>
        </mxCell>
        <mxCell id="0CB_ZCXkAXY30ezm92RP-20" value="&lt;u&gt;Outcome Type ID&lt;/u&gt;" style="ellipse;whiteSpace=wrap;html=1;" vertex="1" parent="1">
          <mxGeometry x="-130" y="670" width="110" height="65" as="geometry" />
        </mxCell>
        <mxCell id="0CB_ZCXkAXY30ezm92RP-21" value="Age upon Outcome" style="ellipse;whiteSpace=wrap;html=1;dashed=1;" vertex="1" parent="1">
          <mxGeometry x="-135" y="468.75" width="120" height="80" as="geometry" />
        </mxCell>
        <mxCell id="0CB_ZCXkAXY30ezm92RP-22" value="" style="endArrow=none;html=1;rounded=0;exitX=1;exitY=1;exitDx=0;exitDy=0;entryX=0.5;entryY=0;entryDx=0;entryDy=0;" edge="1" parent="1" target="0CB_ZCXkAXY30ezm92RP-21">
          <mxGeometry width="50" height="50" relative="1" as="geometry">
            <mxPoint x="-135" y="425" as="sourcePoint" />
            <mxPoint x="-260" y="235" as="targetPoint" />
          </mxGeometry>
        </mxCell>
        <mxCell id="0CB_ZCXkAXY30ezm92RP-23" value="(derived attribute)" style="text;html=1;align=center;verticalAlign=middle;resizable=0;points=[];autosize=1;strokeColor=none;fillColor=none;" vertex="1" parent="1">
          <mxGeometry x="-135" y="546.25" width="120" height="30" as="geometry" />
        </mxCell>
        <mxCell id="0CB_ZCXkAXY30ezm92RP-24" value="MonthYear" style="ellipse;whiteSpace=wrap;html=1;dashed=1;" vertex="1" parent="1">
          <mxGeometry x="-115" y="362.5" width="105" height="80" as="geometry" />
        </mxCell>
        <mxCell id="0CB_ZCXkAXY30ezm92RP-25" value="" style="endArrow=none;html=1;rounded=0;exitX=1;exitY=0.5;exitDx=0;exitDy=0;entryX=0;entryY=0.5;entryDx=0;entryDy=0;" edge="1" parent="1" target="0CB_ZCXkAXY30ezm92RP-24" source="0CB_ZCXkAXY30ezm92RP-3">
          <mxGeometry width="50" height="50" relative="1" as="geometry">
            <mxPoint x="-55" y="325" as="sourcePoint" />
            <mxPoint x="-180" y="135" as="targetPoint" />
          </mxGeometry>
        </mxCell>
        <mxCell id="0CB_ZCXkAXY30ezm92RP-26" value="(derived attribute)" style="text;html=1;align=center;verticalAlign=middle;resizable=0;points=[];autosize=1;strokeColor=none;fillColor=none;" vertex="1" parent="1">
          <mxGeometry x="-115" y="337.5" width="120" height="30" as="geometry" />
        </mxCell>
        <mxCell id="0CB_ZCXkAXY30ezm92RP-33" value="" style="endArrow=none;html=1;rounded=0;entryX=1;entryY=0;entryDx=0;entryDy=0;" edge="1" parent="1" source="0CB_ZCXkAXY30ezm92RP-35" target="0CB_ZCXkAXY30ezm92RP-3">
          <mxGeometry width="50" height="50" relative="1" as="geometry">
            <mxPoint y="303.75" as="sourcePoint" />
            <mxPoint x="-115" y="255" as="targetPoint" />
          </mxGeometry>
        </mxCell>
        <mxCell id="0CB_ZCXkAXY30ezm92RP-35" value="Outcome Subtype" style="ellipse;whiteSpace=wrap;html=1;" vertex="1" parent="1">
          <mxGeometry x="-117.5" y="260" width="110" height="65" as="geometry" />
        </mxCell>
        <mxCell id="0CB_ZCXkAXY30ezm92RP-36" value="" style="endArrow=none;html=1;rounded=0;entryX=0.5;entryY=0;entryDx=0;entryDy=0;" edge="1" parent="1" source="0CB_ZCXkAXY30ezm92RP-38" target="0CB_ZCXkAXY30ezm92RP-3">
          <mxGeometry width="50" height="50" relative="1" as="geometry">
            <mxPoint x="-135" y="243.75" as="sourcePoint" />
            <mxPoint x="-250" y="195" as="targetPoint" />
          </mxGeometry>
        </mxCell>
        <mxCell id="0CB_ZCXkAXY30ezm92RP-37" value="" style="endArrow=none;html=1;rounded=0;" edge="1" parent="1" target="0CB_ZCXkAXY30ezm92RP-38">
          <mxGeometry width="50" height="50" relative="1" as="geometry">
            <mxPoint x="-135" y="243.75" as="sourcePoint" />
            <mxPoint x="-135" y="113.75" as="targetPoint" />
          </mxGeometry>
        </mxCell>
        <mxCell id="0CB_ZCXkAXY30ezm92RP-38" value="Outcome Date Time" style="ellipse;whiteSpace=wrap;html=1;" vertex="1" parent="1">
          <mxGeometry x="-230" y="210" width="110" height="65" as="geometry" />
        </mxCell>
        <mxCell id="0CB_ZCXkAXY30ezm92RP-39" value="" style="endArrow=none;html=1;rounded=0;" edge="1" parent="1" source="0CB_ZCXkAXY30ezm92RP-41">
          <mxGeometry width="50" height="50" relative="1" as="geometry">
            <mxPoint x="-300" y="243.75" as="sourcePoint" />
            <mxPoint x="-255" y="355" as="targetPoint" />
          </mxGeometry>
        </mxCell>
        <mxCell id="0CB_ZCXkAXY30ezm92RP-40" value="" style="endArrow=none;html=1;rounded=0;" edge="1" parent="1" target="0CB_ZCXkAXY30ezm92RP-41">
          <mxGeometry width="50" height="50" relative="1" as="geometry">
            <mxPoint x="-300" y="243.75" as="sourcePoint" />
            <mxPoint x="-300" y="113.75" as="targetPoint" />
          </mxGeometry>
        </mxCell>
        <mxCell id="0CB_ZCXkAXY30ezm92RP-41" value="&lt;u&gt;Outcome ID&lt;/u&gt;" style="ellipse;whiteSpace=wrap;html=1;" vertex="1" parent="1">
          <mxGeometry x="-355" y="211.25" width="110" height="65" as="geometry" />
        </mxCell>
        <mxCell id="0CB_ZCXkAXY30ezm92RP-49" value="" style="endArrow=none;html=1;rounded=0;entryX=0;entryY=1;entryDx=0;entryDy=0;" edge="1" parent="1" source="0CB_ZCXkAXY30ezm92RP-51" target="0CB_ZCXkAXY30ezm92RP-3">
          <mxGeometry width="50" height="50" relative="1" as="geometry">
            <mxPoint x="-355" y="516.25" as="sourcePoint" />
            <mxPoint x="-265" y="515" as="targetPoint" />
          </mxGeometry>
        </mxCell>
        <mxCell id="0CB_ZCXkAXY30ezm92RP-50" value="" style="endArrow=none;html=1;rounded=0;" edge="1" parent="1" target="0CB_ZCXkAXY30ezm92RP-51">
          <mxGeometry width="50" height="50" relative="1" as="geometry">
            <mxPoint x="-355" y="516.25" as="sourcePoint" />
            <mxPoint x="-355" y="386.25" as="targetPoint" />
          </mxGeometry>
        </mxCell>
        <mxCell id="0CB_ZCXkAXY30ezm92RP-51" value="Outcome Sex" style="ellipse;whiteSpace=wrap;html=1;" vertex="1" parent="1">
          <mxGeometry x="-410" y="483.75" width="110" height="65" as="geometry" />
        </mxCell>
        <mxCell id="0CB_ZCXkAXY30ezm92RP-53" value="Breed&amp;nbsp;" style="ellipse;whiteSpace=wrap;html=1;" vertex="1" parent="1">
          <mxGeometry x="-740" y="481.25" width="110" height="65" as="geometry" />
        </mxCell>
        <mxCell id="0CB_ZCXkAXY30ezm92RP-54" value="" style="endArrow=none;html=1;rounded=0;exitX=0.5;exitY=0;exitDx=0;exitDy=0;" edge="1" parent="1" source="0CB_ZCXkAXY30ezm92RP-53">
          <mxGeometry width="50" height="50" relative="1" as="geometry">
            <mxPoint x="-680" y="479.5" as="sourcePoint" />
            <mxPoint x="-620" y="422.5" as="targetPoint" />
          </mxGeometry>
        </mxCell>
        <mxCell id="0CB_ZCXkAXY30ezm92RP-55" value="Color" style="ellipse;whiteSpace=wrap;html=1;" vertex="1" parent="1">
          <mxGeometry x="-530" y="492.5" width="110" height="65" as="geometry" />
        </mxCell>
        <mxCell id="0CB_ZCXkAXY30ezm92RP-56" value="" style="endArrow=none;html=1;rounded=0;exitX=0.5;exitY=0;exitDx=0;exitDy=0;" edge="1" parent="1" source="0CB_ZCXkAXY30ezm92RP-55">
          <mxGeometry width="50" height="50" relative="1" as="geometry">
            <mxPoint x="-560" y="479.5" as="sourcePoint" />
            <mxPoint x="-500" y="422.5" as="targetPoint" />
          </mxGeometry>
        </mxCell>
        <mxCell id="0CB_ZCXkAXY30ezm92RP-57" value="Name" style="ellipse;whiteSpace=wrap;html=1;" vertex="1" parent="1">
          <mxGeometry x="-840" y="365" width="110" height="65" as="geometry" />
        </mxCell>
        <mxCell id="0CB_ZCXkAXY30ezm92RP-58" value="" style="endArrow=none;html=1;rounded=0;exitX=1;exitY=0.5;exitDx=0;exitDy=0;entryX=0;entryY=0.5;entryDx=0;entryDy=0;" edge="1" parent="1">
          <mxGeometry width="50" height="50" relative="1" as="geometry">
            <mxPoint x="-730" y="396.25" as="sourcePoint" />
            <mxPoint x="-620" y="388.75" as="targetPoint" />
          </mxGeometry>
        </mxCell>
        <mxCell id="0CB_ZCXkAXY30ezm92RP-59" value="Sex" style="ellipse;whiteSpace=wrap;html=1;" vertex="1" parent="1">
          <mxGeometry x="-487.39" y="242.5" width="110" height="65" as="geometry" />
        </mxCell>
        <mxCell id="0CB_ZCXkAXY30ezm92RP-60" value="" style="endArrow=none;html=1;rounded=0;" edge="1" parent="1">
          <mxGeometry width="50" height="50" relative="1" as="geometry">
            <mxPoint x="-440" y="307.5" as="sourcePoint" />
            <mxPoint x="-500" y="363.5" as="targetPoint" />
          </mxGeometry>
        </mxCell>
        <mxCell id="0CB_ZCXkAXY30ezm92RP-63" value="Date Of Birth" style="ellipse;whiteSpace=wrap;html=1;" vertex="1" parent="1">
          <mxGeometry x="-840" y="232.5" width="110" height="65" as="geometry" />
        </mxCell>
        <mxCell id="0CB_ZCXkAXY30ezm92RP-64" value="" style="endArrow=none;html=1;rounded=0;exitX=0.96;exitY=0.769;exitDx=0;exitDy=0;entryX=0;entryY=0;entryDx=0;entryDy=0;exitPerimeter=0;" edge="1" parent="1" source="0CB_ZCXkAXY30ezm92RP-63" target="0CB_ZCXkAXY30ezm92RP-1">
          <mxGeometry width="50" height="50" relative="1" as="geometry">
            <mxPoint x="-740" y="280.5" as="sourcePoint" />
            <mxPoint x="-630" y="272.5" as="targetPoint" />
          </mxGeometry>
        </mxCell>
        <mxCell id="0CB_ZCXkAXY30ezm92RP-65" value="&lt;u&gt;Animal ID&lt;/u&gt;" style="ellipse;whiteSpace=wrap;html=1;" vertex="1" parent="1">
          <mxGeometry x="-635" y="232.5" width="110" height="70" as="geometry" />
        </mxCell>
        <mxCell id="0CB_ZCXkAXY30ezm92RP-66" value="" style="endArrow=none;html=1;rounded=0;exitX=0.5;exitY=1;exitDx=0;exitDy=0;entryX=0.432;entryY=-0.021;entryDx=0;entryDy=0;entryPerimeter=0;" edge="1" parent="1" source="0CB_ZCXkAXY30ezm92RP-65" target="0CB_ZCXkAXY30ezm92RP-1">
          <mxGeometry width="50" height="50" relative="1" as="geometry">
            <mxPoint x="-540" y="307.74" as="sourcePoint" />
            <mxPoint x="-613" y="363.74" as="targetPoint" />
          </mxGeometry>
        </mxCell>
        <mxCell id="0CB_ZCXkAXY30ezm92RP-67" value="&lt;div&gt;&lt;b&gt;&lt;i&gt;First Normal Form (1NF)&lt;/i&gt;&lt;/b&gt;: Eliminate duplicate columns and ensure each column holds atomic values.&lt;/div&gt;&lt;div&gt;&lt;br&gt;&lt;/div&gt;&lt;div&gt;&amp;nbsp; &amp;nbsp; &amp;nbsp; &lt;b&gt;&lt;i&gt;Second Normal Form (2NF)&lt;/i&gt;&lt;/b&gt;: Meet 1NF, and ensure non-key attributes depend on the entire primary key.&lt;/div&gt;&lt;div&gt;&lt;br&gt;&lt;/div&gt;&lt;div&gt;&amp;nbsp; &amp;nbsp; &amp;nbsp; &amp;nbsp; &lt;b&gt;&lt;i&gt;Third Normal Form (3NF):&lt;/i&gt;&lt;/b&gt;&amp;nbsp; Satisfy 2NF and eliminate transitive dependencies between non-key attributes.&lt;/div&gt;" style="text;html=1;align=center;verticalAlign=middle;resizable=0;points=[];autosize=1;strokeColor=none;fillColor=none;" vertex="1" parent="1">
          <mxGeometry x="-850" y="60" width="620" height="90" as="geometry" />
        </mxCell>
      </root>
    </mxGraphModel>
  </diagram>
</mxfile>
